<svg xmlns="http://www.w3.org/2000/svg" viewBox="0 -0.5 16 16" shape-rendering="crispEdges">
<metadata>Made with Pixels to Svg https://codepen.io/shshaw/pen/XbxvNj</metadata>
<path stroke="#444ee4" d="M6 0h1M8 1h1M12 12h1" />
<path stroke="#3f49e2" d="M7 0h2M4 2h1M9 2h2M12 2h1M9 3h1M3 4h1M11 4h3M3 5h1M11 5h1M13 5h2M3 6h1M6 6h1M9 6h1M11 6h2M14 6h1M2 7h2M5 7h2M9 7h4M2 8h2M5 8h2M9 8h1M12 8h1M2 9h1M4 9h3M8 9h2M12 9h1M2 10h1M4 10h1M7 10h2M10 10h2M2 11h1M5 11h1M7 11h1M10 11h2M4 12h1M6 12h3M10 12h2M4 13h1M8 13h3M13 13h1M1 14h1M3 14h6M10 14h3M14 14h1M0 15h1M2 15h1M4 15h1M11 15h1" />
<path stroke="#7179f3" d="M9 0h1M6 2h1M2 14h1" />
<path stroke="#434de4" d="M10 0h1M8 5h1" />
<path stroke="#4751e5" d="M11 0h1" />
<path stroke="rgba(77,93,232,0.12941176470588237)" d="M12 0h1" />
<path stroke="#4650e5" d="M5 1h1M5 2h1M14 13h1" />
<path stroke="#4b55e6" d="M6 1h1M6 10h1" />
<path stroke="#414be3" d="M7 1h1M10 1h1M8 3h1M7 7h1M8 11h1M2 13h1" />
<path stroke="#4953e6" d="M9 1h1M4 11h1M9 11h1M6 13h1M8 15h1" />
<path stroke="#4852e5" d="M11 1h1M3 3h1M10 9h1M3 11h1M2 12h1" />
<path stroke="#4e58e8" d="M12 1h1" />
<path stroke="rgba(77,89,230,0.0784313725490196)" d="M13 1h1" />
<path stroke="#777ff5" d="M7 2h1M11 2h1M5 3h1M10 3h3M4 4h1M14 4h1M4 5h1M12 5h1M2 6h1M4 6h1M13 6h1M15 6h1M1 7h1M8 7h1M13 7h1M4 8h1M11 8h1M13 8h1M3 9h1M7 9h1M3 10h1M12 11h1M5 12h1M9 12h1M13 14h1M1 15h1M5 15h1M12 15h1M14 15h1" />
<path stroke="#4a54e6" d="M8 2h1M4 3h1M2 5h1M8 6h1" />
<path stroke="#4f59e8" d="M13 2h1M5 13h1" />
<path stroke="#4a53e6" d="M6 3h1" />
<path stroke="#4b54e6" d="M7 3h1" />
<path stroke="#454fe4" d="M13 3h1M2 4h1M11 9h1M9 10h1M3 12h1M7 13h1M9 15h1" />
<path stroke="#5e67ed" d="M5 4h1M13 10h1" />
<path stroke="#493d3d" d="M6 4h1M6 5h2M9 5h2" />
<path stroke="#5b1d1d" d="M7 4h1M10 4h1" />
<path stroke="#4b55e7" d="M8 4h1" />
<path stroke="#4a4158" d="M9 4h1" />
<path stroke="#515ae8" d="M5 5h1" />
<path stroke="#434de3" d="M5 6h1" />
<path stroke="#404ae3" d="M7 6h1" />
<path stroke="#535ce9" d="M10 6h1M12 13h1" />
<path stroke="#4650e4" d="M4 7h1M12 10h1" />
<path stroke="#4b54e3" d="M14 7h1" />
<path stroke="#4c56e7" d="M7 8h1" />
<path stroke="#424ce3" d="M8 8h1M5 10h1M13 12h2M11 13h1" />
<path stroke="#404ae2" d="M10 8h1M14 11h1" />
<path stroke="#858ce9" d="M14 8h1M14 9h1" />
<path stroke="#6e77f3" d="M13 9h1" />
<path stroke="#535de6" d="M14 10h1" />
<path stroke="#5b64eb" d="M6 11h1" />
<path stroke="#4f59e7" d="M13 11h1" />
<path stroke="#666fef" d="M3 13h1" />
<path stroke="#545de9" d="M9 14h1" />
<path stroke="rgba(63,73,226,0.8392156862745098)" d="M15 14h1" />
<path stroke="rgba(77,86,224,0.9921568627450981)" d="M15 15h1" />
</svg>