<svg xmlns="http://www.w3.org/2000/svg" viewBox="0 -0.5 16 16" shape-rendering="crispEdges">
<metadata>Made with Pixels to Svg https://codepen.io/shshaw/pen/XbxvNj</metadata>
<path stroke="rgba(195,195,195,0.8431372549019608)" d="M6 0h1M11 0h1M0 15h1" />
<path stroke="#c3c3c3" d="M7 0h2M10 0h1M5 1h2M8 1h4M4 2h1M8 2h3M12 2h1M3 3h2M6 3h2M9 3h1M3 4h1M5 4h1M11 4h1M13 4h1M2 5h2M5 5h1M8 5h1M11 5h1M13 5h2M3 6h1M5 6h5M11 6h2M14 6h1M2 7h5M9 7h1M11 7h2M14 7h1M2 8h2M5 8h2M8 8h1M10 8h2M14 8h1M2 9h1M4 9h3M8 9h1M10 9h2M14 9h1M2 10h1M4 10h2M7 10h2M10 10h2M13 10h1M2 11h1M4 11h1M7 11h2M10 11h2M13 11h1M4 12h1M6 12h3M10 12h3M2 13h1M4 13h1M6 13h3M10 13h2M3 14h1M5 14h4M10 14h3M14 14h1M2 15h1M4 15h1M8 15h2M11 15h1" />
<path stroke="#d6d6d6" d="M9 0h1M7 2h1M5 3h1M11 3h1M14 4h1M12 5h1M2 6h1M4 6h1M15 6h1M1 7h1M8 7h1M4 8h1M13 8h1M7 9h1M13 9h1M3 10h1M6 11h1M12 11h1M9 12h1M3 13h1M12 13h1M2 14h1M9 14h1M13 14h1M1 15h1M5 15h1M12 15h1" />
<path stroke="rgba(196,196,196,0.5294117647058824)" d="M4 1h1" />
<path stroke="#c6c6c6" d="M7 1h1M5 2h1M7 7h1M6 10h1M12 10h1" />
<path stroke="rgba(195,195,195,0.9725490196078431)" d="M12 1h1" />
<path stroke="rgba(192,192,192,0.20784313725490197)" d="M3 2h1" />
<path stroke="#c8c8c8" d="M6 2h1M7 8h1" />
<path stroke="#cacaca" d="M11 2h1M10 6h1M13 6h1M13 7h1M5 13h1M13 13h1M14 15h1" />
<path stroke="rgba(206,207,207,0.8549019607843137)" d="M13 2h1" />
<path stroke="#c7c7c7" d="M8 3h1M10 7h1M9 13h1" />
<path stroke="#cbcbcb" d="M10 3h1M12 3h1M4 5h1M3 9h1M12 9h1M3 11h1" />
<path stroke="#c6c6c7" d="M13 3h1" />
<path stroke="rgba(195,195,195,0.8117647058823529)" d="M2 4h1" />
<path stroke="#c9c9c9" d="M4 4h1M9 8h1M9 9h1M9 10h1M9 11h1" />
<path stroke="#493d3d" d="M6 4h1M9 4h1M6 5h2M9 5h2" />
<path stroke="#5b1d1d" d="M7 4h1M10 4h1" />
<path stroke="#c5c5c5" d="M8 4h1" />
<path stroke="#c4c4c4" d="M12 4h1M5 11h1M3 12h1M13 12h1M4 14h1" />
<path stroke="#cccccc" d="M12 8h1M5 12h1" />
<path stroke="rgba(195,195,195,0.6862745098039216)" d="M14 10h1M14 11h1M14 12h1M14 13h1" />
<path stroke="rgba(195,195,195,0.8274509803921568)" d="M2 12h1" />
<path stroke="rgba(195,195,195,0.8313725490196079)" d="M1 14h1" />
<path stroke="rgba(195,195,195,0.9294117647058824)" d="M15 15h1" />
</svg>