<?xml version="1.0" encoding="UTF-8" ?>
<svg version="1.1" width="16" height="16" xmlns="http://www.w3.org/2000/svg" shape-rendering="crispEdges">
<rect x="0" y="0" width="1" height="1" fill="#A53030" opacity="0.458824" />
<rect x="1" y="0" width="1" height="1" fill="#BD6547" opacity="0.572549" />
<rect x="2" y="0" width="1" height="1" fill="#A53030" opacity="0.458824" />
<rect x="3" y="0" width="1" height="1" fill="#BD6547" opacity="0.572549" />
<rect x="12" y="0" width="1" height="1" fill="#A53030" opacity="0.458824" />
<rect x="13" y="0" width="1" height="1" fill="#A53030" opacity="0.458824" />
<rect x="14" y="0" width="1" height="1" fill="#BD6547" opacity="0.572549" />
<rect x="15" y="0" width="1" height="1" fill="#A53030" opacity="0.458824" />
<rect x="1" y="1" width="1" height="1" fill="#A53030" opacity="0.458824" />
<rect x="2" y="1" width="1" height="1" fill="#D5744A" opacity="0.768627" />
<rect x="3" y="1" width="1" height="1" fill="#A53030" opacity="0.458824" />
<rect x="4" y="1" width="1" height="1" fill="#A53030" opacity="0.458824" />
<rect x="5" y="1" width="1" height="1" fill="#A53030" opacity="0.458824" />
<rect x="6" y="1" width="1" height="1" fill="#A53030" opacity="0.458824" />
<rect x="7" y="1" width="1" height="1" fill="#A53030" opacity="0.458824" />
<rect x="8" y="1" width="1" height="1" fill="#A53030" opacity="0.458824" />
<rect x="9" y="1" width="1" height="1" fill="#A53030" opacity="0.458824" />
<rect x="10" y="1" width="1" height="1" fill="#A53030" opacity="0.458824" />
<rect x="11" y="1" width="1" height="1" fill="#A53030" opacity="0.458824" />
<rect x="12" y="1" width="1" height="1" fill="#A53030" opacity="0.458824" />
<rect x="13" y="1" width="1" height="1" fill="#CF573C" opacity="0.705882" />
<rect x="14" y="1" width="1" height="1" fill="#CF573C" opacity="0.705882" />
<rect x="15" y="1" width="1" height="1" fill="#A53030" opacity="0.458824" />
<rect x="0" y="2" width="1" height="1" fill="#A53030" opacity="0.458824" />
<rect x="1" y="2" width="1" height="1" fill="#A53030" opacity="0.458824" />
<rect x="2" y="2" width="1" height="1" fill="#CF573C" opacity="0.705882" />
<rect x="3" y="2" width="1" height="1" fill="#CF573C" opacity="0.705882" />
<rect x="4" y="2" width="1" height="1" fill="#CA8254" opacity="0.662745" />
<rect x="5" y="2" width="1" height="1" fill="#A53030" opacity="0.458824" />
<rect x="6" y="2" width="1" height="1" fill="#CF573C" opacity="0.705882" />
<rect x="7" y="2" width="1" height="1" fill="#D5744A" opacity="0.768627" />
<rect x="8" y="2" width="1" height="1" fill="#CF573C" opacity="0.705882" />
<rect x="9" y="2" width="1" height="1" fill="#CF573C" opacity="0.705882" />
<rect x="10" y="2" width="1" height="1" fill="#BD6547" opacity="0.572549" />
<rect x="11" y="2" width="1" height="1" fill="#A53030" opacity="0.458824" />
<rect x="12" y="2" width="1" height="1" fill="#D5744A" opacity="0.768627" />
<rect x="13" y="2" width="1" height="1" fill="#CF573C" opacity="0.705882" />
<rect x="14" y="2" width="1" height="1" fill="#CF573C" opacity="0.705882" />
<rect x="15" y="2" width="1" height="1" fill="#A53030" opacity="0.458824" />
<rect x="1" y="3" width="1" height="1" fill="#BD6547" opacity="0.572549" />
<rect x="2" y="3" width="1" height="1" fill="#A53030" opacity="0.458824" />
<rect x="3" y="3" width="1" height="1" fill="#D5744A" opacity="0.768627" />
<rect x="4" y="3" width="1" height="1" fill="#CF573C" opacity="0.705882" />
<rect x="5" y="3" width="1" height="1" fill="#CF573C" opacity="0.705882" />
<rect x="6" y="3" width="1" height="1" fill="#CF573C" opacity="0.705882" />
<rect x="9" y="3" width="1" height="1" fill="#CF573C" opacity="0.705882" />
<rect x="10" y="3" width="1" height="1" fill="#CF573C" opacity="0.705882" />
<rect x="11" y="3" width="1" height="1" fill="#CF573C" opacity="0.705882" />
<rect x="12" y="3" width="1" height="1" fill="#D5744A" opacity="0.768627" />
<rect x="13" y="3" width="1" height="1" fill="#CF573C" opacity="0.705882" />
<rect x="14" y="3" width="1" height="1" fill="#BD6547" opacity="0.572549" />
<rect x="15" y="3" width="1" height="1" fill="#A53030" opacity="0.458824" />
<rect x="1" y="4" width="1" height="1" fill="#A53030" opacity="0.458824" />
<rect x="2" y="4" width="1" height="1" fill="#A53030" opacity="0.458824" />
<rect x="3" y="4" width="1" height="1" fill="#CF573C" opacity="0.705882" />
<rect x="4" y="4" width="1" height="1" fill="#E1AC65" opacity="0.929412" />
<rect x="5" y="4" width="1" height="1" fill="#CF573C" opacity="0.705882" />
<rect x="6" y="4" width="1" height="1" fill="#663312" opacity="0.839216" />
<rect x="8" y="4" width="1" height="1" fill="#855528" opacity="0.874510" />
<rect x="11" y="4" width="1" height="1" fill="#E8C170" opacity="0.662745" />
<rect x="12" y="4" width="1" height="1" fill="#E8C170" opacity="0.866667" />
<rect x="13" y="4" width="1" height="1" fill="#CF573C" opacity="0.705882" />
<rect x="14" y="4" width="1" height="1" fill="#A53030" opacity="0.458824" />
<rect x="1" y="5" width="1" height="1" fill="#A53030" opacity="0.458824" />
<rect x="2" y="5" width="1" height="1" fill="#D5744A" opacity="0.768627" />
<rect x="3" y="5" width="1" height="1" fill="#CF573C" opacity="0.705882" />
<rect x="4" y="5" width="1" height="1" fill="#663312" opacity="0.839216" />
<rect x="5" y="5" width="1" height="1" fill="#663312" opacity="0.839216" />
<rect x="7" y="5" width="1" height="1" fill="#663312" opacity="0.839216" />
<rect x="12" y="5" width="1" height="1" fill="#E8C170" opacity="0.662745" />
<rect x="13" y="5" width="1" height="1" fill="#CF573C" opacity="0.705882" />
<rect x="14" y="5" width="1" height="1" fill="#A53030" opacity="0.458824" />
<rect x="0" y="6" width="1" height="1" fill="#BD6547" opacity="0.572549" />
<rect x="1" y="6" width="1" height="1" fill="#A53030" opacity="0.458824" />
<rect x="2" y="6" width="1" height="1" fill="#CF573C" opacity="0.705882" />
<rect x="3" y="6" width="1" height="1" fill="#663312" opacity="0.839216" />
<rect x="5" y="6" width="1" height="1" fill="#855528" opacity="0.874510" />
<rect x="7" y="6" width="1" height="1" fill="#663312" opacity="0.839216" />
<rect x="9" y="6" width="1" height="1" fill="#996B37" opacity="0.949020" />
<rect x="10" y="6" width="1" height="1" fill="#E8C170" opacity="0.211765" />
<rect x="13" y="6" width="1" height="1" fill="#D5744A" opacity="0.768627" />
<rect x="14" y="6" width="1" height="1" fill="#A53030" opacity="0.458824" />
<rect x="15" y="6" width="1" height="1" fill="#A53030" opacity="0.458824" />
<rect x="0" y="7" width="1" height="1" fill="#A53030" opacity="0.458824" />
<rect x="1" y="7" width="1" height="1" fill="#D5744A" opacity="0.768627" />
<rect x="2" y="7" width="1" height="1" fill="#CF573C" opacity="0.705882" />
<rect x="3" y="7" width="1" height="1" fill="#CF573C" opacity="0.705882" />
<rect x="4" y="7" width="1" height="1" fill="#663312" opacity="0.839216" />
<rect x="5" y="7" width="1" height="1" fill="#663312" opacity="0.839216" />
<rect x="7" y="7" width="1" height="1" fill="#855528" opacity="0.874510" />
<rect x="8" y="7" width="1" height="1" fill="#663312" opacity="0.839216" />
<rect x="10" y="7" width="1" height="1" fill="#663312" opacity="0.839216" />
<rect x="11" y="7" width="1" height="1" fill="#663312" opacity="0.839216" />
<rect x="12" y="7" width="1" height="1" fill="#CF573C" opacity="0.705882" />
<rect x="13" y="7" width="1" height="1" fill="#CF573C" opacity="0.705882" />
<rect x="14" y="7" width="1" height="1" fill="#CF573C" opacity="0.705882" />
<rect x="15" y="7" width="1" height="1" fill="#A53030" opacity="0.458824" />
<rect x="0" y="8" width="1" height="1" fill="#A53030" opacity="0.458824" />
<rect x="1" y="8" width="1" height="1" fill="#BD6547" opacity="0.572549" />
<rect x="2" y="8" width="1" height="1" fill="#CF573C" opacity="0.705882" />
<rect x="4" y="8" width="1" height="1" fill="#855528" opacity="0.874510" />
<rect x="6" y="8" width="1" height="1" fill="#663312" opacity="0.839216" />
<rect x="7" y="8" width="1" height="1" fill="#663312" opacity="0.839216" />
<rect x="8" y="8" width="1" height="1" fill="#E8C170" opacity="0.211765" />
<rect x="9" y="8" width="1" height="1" fill="#E8C170" opacity="0.211765" />
<rect x="12" y="8" width="1" height="1" fill="#CF573C" opacity="0.705882" />
<rect x="13" y="8" width="1" height="1" fill="#CF573C" opacity="0.705882" />
<rect x="14" y="8" width="1" height="1" fill="#D5744A" opacity="0.768627" />
<rect x="15" y="8" width="1" height="1" fill="#A53030" opacity="0.458824" />
<rect x="0" y="9" width="1" height="1" fill="#BD6547" opacity="0.572549" />
<rect x="1" y="9" width="1" height="1" fill="#A53030" opacity="0.458824" />
<rect x="2" y="9" width="1" height="1" fill="#CF573C" opacity="0.705882" />
<rect x="5" y="9" width="1" height="1" fill="#E8C170" opacity="0.760784" />
<rect x="6" y="9" width="1" height="1" fill="#E8C170" opacity="0.964706" />
<rect x="7" y="9" width="1" height="1" fill="#E8C170" opacity="0.611765" />
<rect x="8" y="9" width="1" height="1" fill="#E8C170" opacity="0.211765" />
<rect x="9" y="9" width="1" height="1" fill="#E8C170" opacity="0.211765" />
<rect x="10" y="9" width="1" height="1" fill="#E8C170" opacity="0.662745" />
<rect x="11" y="9" width="1" height="1" fill="#E8C170" opacity="0.831373" />
<rect x="12" y="9" width="1" height="1" fill="#CF573C" opacity="0.705882" />
<rect x="13" y="9" width="1" height="1" fill="#CF573C" opacity="0.705882" />
<rect x="14" y="9" width="1" height="1" fill="#A53030" opacity="0.458824" />
<rect x="15" y="9" width="1" height="1" fill="#A53030" opacity="0.458824" />
<rect x="0" y="10" width="1" height="1" fill="#A53030" opacity="0.458824" />
<rect x="1" y="10" width="1" height="1" fill="#D5744A" opacity="0.768627" />
<rect x="2" y="10" width="1" height="1" fill="#CF573C" opacity="0.705882" />
<rect x="3" y="10" width="1" height="1" fill="#CF573C" opacity="0.705882" />
<rect x="5" y="10" width="1" height="1" fill="#855528" opacity="0.874510" />
<rect x="6" y="10" width="1" height="1" fill="#663312" opacity="0.839216" />
<rect x="7" y="10" width="1" height="1" fill="#663312" opacity="0.839216" />
<rect x="8" y="10" width="1" height="1" fill="#663312" opacity="0.839216" />
<rect x="9" y="10" width="1" height="1" fill="#663312" opacity="0.839216" />
<rect x="10" y="10" width="1" height="1" fill="#663312" opacity="0.839216" />
<rect x="11" y="10" width="1" height="1" fill="#E8C170" opacity="0.572549" />
<rect x="12" y="10" width="1" height="1" fill="#CF573C" opacity="0.705882" />
<rect x="13" y="10" width="1" height="1" fill="#A53030" opacity="0.458824" />
<rect x="14" y="10" width="1" height="1" fill="#A53030" opacity="0.458824" />
<rect x="0" y="11" width="1" height="1" fill="#A53030" opacity="0.458824" />
<rect x="1" y="11" width="1" height="1" fill="#A53030" opacity="0.458824" />
<rect x="2" y="11" width="1" height="1" fill="#CF573C" opacity="0.705882" />
<rect x="3" y="11" width="1" height="1" fill="#E8C170" opacity="0.733333" />
<rect x="5" y="11" width="1" height="1" fill="#663312" opacity="0.839216" />
<rect x="6" y="11" width="1" height="1" fill="#855528" opacity="0.874510" />
<rect x="9" y="11" width="1" height="1" fill="#855528" opacity="0.874510" />
<rect x="10" y="11" width="1" height="1" fill="#663312" opacity="0.839216" />
<rect x="12" y="11" width="1" height="1" fill="#D5744A" opacity="0.768627" />
<rect x="13" y="11" width="1" height="1" fill="#A53030" opacity="0.458824" />
<rect x="14" y="11" width="1" height="1" fill="#A53030" opacity="0.458824" />
<rect x="1" y="12" width="1" height="1" fill="#A53030" opacity="0.458824" />
<rect x="2" y="12" width="1" height="1" fill="#D5744A" opacity="0.768627" />
<rect x="3" y="12" width="1" height="1" fill="#E8C170" opacity="0.894118" />
<rect x="4" y="12" width="1" height="1" fill="#E8C170" opacity="0.733333" />
<rect x="5" y="12" width="1" height="1" fill="#CF573C" opacity="0.705882" />
<rect x="6" y="12" width="1" height="1" fill="#663312" opacity="0.839216" />
<rect x="7" y="12" width="1" height="1" fill="#663312" opacity="0.839216" />
<rect x="8" y="12" width="1" height="1" fill="#663312" opacity="0.839216" />
<rect x="9" y="12" width="1" height="1" fill="#663312" opacity="0.839216" />
<rect x="10" y="12" width="1" height="1" fill="#663312" opacity="0.839216" />
<rect x="12" y="12" width="1" height="1" fill="#CF573C" opacity="0.705882" />
<rect x="13" y="12" width="1" height="1" fill="#CF573C" opacity="0.705882" />
<rect x="14" y="12" width="1" height="1" fill="#A53030" opacity="0.458824" />
<rect x="15" y="12" width="1" height="1" fill="#BD6547" opacity="0.572549" />
<rect x="0" y="13" width="1" height="1" fill="#A53030" opacity="0.458824" />
<rect x="1" y="13" width="1" height="1" fill="#BD6547" opacity="0.572549" />
<rect x="2" y="13" width="1" height="1" fill="#CF573C" opacity="0.705882" />
<rect x="3" y="13" width="1" height="1" fill="#CF573C" opacity="0.705882" />
<rect x="4" y="13" width="1" height="1" fill="#CF573C" opacity="0.705882" />
<rect x="5" y="13" width="1" height="1" fill="#CF573C" opacity="0.705882" />
<rect x="6" y="13" width="1" height="1" fill="#CF573C" opacity="0.705882" />
<rect x="7" y="13" width="1" height="1" fill="#D5744A" opacity="0.768627" />
<rect x="8" y="13" width="1" height="1" fill="#CF573C" opacity="0.705882" />
<rect x="9" y="13" width="1" height="1" fill="#CF573C" opacity="0.705882" />
<rect x="10" y="13" width="1" height="1" fill="#D5744A" opacity="0.768627" />
<rect x="11" y="13" width="1" height="1" fill="#D5744A" opacity="0.768627" />
<rect x="12" y="13" width="1" height="1" fill="#CF573C" opacity="0.705882" />
<rect x="13" y="13" width="1" height="1" fill="#CF573C" opacity="0.705882" />
<rect x="14" y="13" width="1" height="1" fill="#CF573C" opacity="0.705882" />
<rect x="15" y="13" width="1" height="1" fill="#A53030" opacity="0.458824" />
<rect x="0" y="14" width="1" height="1" fill="#A53030" opacity="0.458824" />
<rect x="1" y="14" width="1" height="1" fill="#BD6547" opacity="0.572549" />
<rect x="2" y="14" width="1" height="1" fill="#BD6547" opacity="0.572549" />
<rect x="3" y="14" width="1" height="1" fill="#A53030" opacity="0.458824" />
<rect x="4" y="14" width="1" height="1" fill="#A53030" opacity="0.458824" />
<rect x="5" y="14" width="1" height="1" fill="#CF573C" opacity="0.705882" />
<rect x="6" y="14" width="1" height="1" fill="#BD6547" opacity="0.572549" />
<rect x="7" y="14" width="1" height="1" fill="#A53030" opacity="0.458824" />
<rect x="8" y="14" width="1" height="1" fill="#A53030" opacity="0.458824" />
<rect x="9" y="14" width="1" height="1" fill="#A53030" opacity="0.458824" />
<rect x="10" y="14" width="1" height="1" fill="#A53030" opacity="0.458824" />
<rect x="11" y="14" width="1" height="1" fill="#A53030" opacity="0.458824" />
<rect x="12" y="14" width="1" height="1" fill="#A53030" opacity="0.458824" />
<rect x="13" y="14" width="1" height="1" fill="#A53030" opacity="0.458824" />
<rect x="14" y="14" width="1" height="1" fill="#D5744A" opacity="0.768627" />
<rect x="15" y="14" width="1" height="1" fill="#A53030" opacity="0.458824" />
<rect x="3" y="15" width="1" height="1" fill="#E8C170" opacity="0.211765" />
<rect x="4" y="15" width="1" height="1" fill="#A53030" opacity="0.458824" />
<rect x="5" y="15" width="1" height="1" fill="#A53030" opacity="0.458824" />
<rect x="6" y="15" width="1" height="1" fill="#A53030" opacity="0.458824" />
<rect x="9" y="15" width="1" height="1" fill="#E8C170" opacity="0.211765" />
<rect x="13" y="15" width="1" height="1" fill="#BD6547" opacity="0.572549" />
<rect x="14" y="15" width="1" height="1" fill="#BD6547" opacity="0.572549" />
<rect x="15" y="15" width="1" height="1" fill="#A53030" opacity="0.458824" />
</svg>