<?xml version="1.0" standalone="no"?>
<!DOCTYPE svg PUBLIC "-//W3C//DTD SVG 20010904//EN"
 "http://www.w3.org/TR/2001/REC-SVG-20010904/DTD/svg10.dtd">
<svg version="1.0" xmlns="http://www.w3.org/2000/svg"
 width="8.000000pt" height="8.000000pt" viewBox="0 0 8.000000 8.000000"
 preserveAspectRatio="xMidYMid meet">

<g transform="translate(0.000000,8.000000) scale(0.100000,-0.100000)"
fill="#000000" stroke="none">
<path d="M11 71 c-17 -11 -7 -41 13 -41 16 0 31 18 22 27 -3 3 -13 0 -22 -8
-16 -13 -16 -12 -5 9 13 24 12 26 -8 13z"/>
<path d="M45 70 c3 -5 13 -10 21 -10 8 0 12 5 9 10 -3 6 -13 10 -21 10 -8 0
-12 -4 -9 -10z"/>
<path d="M50 35 c-7 -8 -21 -15 -32 -15 -10 0 -17 -4 -14 -9 10 -16 56 -9 66
10 6 10 10 20 10 23 0 11 -18 6 -30 -9z"/>
</g>
</svg>
